<?xml version="1.0" standalone="no"?>
<!DOCTYPE svg PUBLIC "-//W3C//DTD SVG 20010904//EN"
 "http://www.w3.org/TR/2001/REC-SVG-20010904/DTD/svg10.dtd">
<svg version="1.0" xmlns="http://www.w3.org/2000/svg"
 width="512.000000pt" height="512.000000pt" viewBox="0 0 512.000000 512.000000"
 preserveAspectRatio="xMidYMid meet">
<metadata>
Created by potrace 1.11, written by Peter Selinger 2001-2013
</metadata>
<g transform="translate(0.000000,512.000000) scale(0.100000,-0.100000)"
fill="#000000" stroke="none">
<path d="M2437 4954 c-1 -1 -40 -5 -86 -8 -274 -22 -584 -108 -836 -231 -149
-73 -156 -78 -284 -163 -266 -179 -497 -412 -676 -681 -63 -96 -161 -278 -204
-381 -12 -30 -26 -64 -31 -75 -45 -106 -115 -383 -134 -531 -24 -191 -25 -541
-1 -634 2 -8 6 -35 9 -60 6 -46 8 -54 27 -150 46 -235 182 -558 324 -774 232
-354 525 -623 891 -821 191 -104 498 -212 679 -239 22 -4 67 -11 100 -16 77
-13 229 -24 325 -24 41 0 78 -5 82 -10 5 -8 8 -8 8 0 0 6 24 12 58 13 57 2 71
3 172 15 196 22 429 84 620 164 184 77 415 211 550 321 25 20 56 45 70 56 54
42 279 274 333 342 171 216 308 468 400 733 19 54 58 197 62 225 2 11 4 20 5
20 1 0 3 9 5 20 6 35 17 99 21 130 3 17 6 39 9 50 23 111 23 533 0 625 -2 8
-6 38 -10 65 -3 28 -17 100 -31 160 -85 382 -266 736 -533 1044 -59 68 -249
253 -284 276 -8 6 -51 37 -95 70 -113 85 -203 142 -314 200 -31 16 -54 34 -51
39 3 5 1 6 -5 2 -6 -3 -57 13 -114 37 -299 127 -585 187 -923 191 -75 1 -137
1 -138 0z m310 -208 c50 -3 97 -8 105 -10 7 -3 33 -8 58 -11 109 -16 136 -22
236 -50 142 -41 250 -83 383 -148 119 -59 331 -192 401 -253 19 -16 54 -47 79
-68 310 -268 550 -652 665 -1061 14 -49 28 -103 31 -120 2 -16 7 -41 10 -55 3
-14 8 -43 11 -65 3 -22 7 -46 9 -52 7 -21 19 -212 19 -303 0 -177 -30 -397
-78 -570 -2 -8 -7 -28 -12 -45 -8 -33 -65 -186 -90 -244 -117 -264 -275 -495
-470 -686 -209 -206 -406 -339 -684 -463 -135 -61 -386 -134 -505 -147 -33 -4
-63 -9 -66 -11 -9 -5 -213 -18 -279 -17 -115 0 -220 6 -277 15 -32 4 -71 10
-88 13 -252 38 -525 138 -763 279 -174 103 -282 188 -431 336 -276 273 -476
623 -575 1000 -14 52 -27 112 -31 134 -3 21 -7 41 -9 45 -3 4 -7 40 -11 81 -3
40 -8 77 -11 82 -8 12 -7 355 0 418 15 119 46 288 66 355 11 39 22 75 24 80
97 329 294 656 546 905 102 101 135 130 215 191 338 259 768 423 1170 445 61
4 111 7 112 8 4 3 129 -1 240 -8z"/>
<path d="M3360 4200 l0 -201 -232 1 c-128 0 -364 1 -523 0 l-291 0 0 -500 0
-500 66 0 c36 0 260 -1 498 -1 l432 0 -2 -352 -3 -352 -495 0 -495 0 0 -583
c0 -321 2 -585 6 -587 9 -6 47 -7 464 -6 215 0 449 -1 520 -2 l130 -2 0 -172
c0 -203 -14 -193 140 -100 189 113 376 271 514 432 105 122 234 330 301 484
78 180 140 406 156 567 3 34 7 81 10 105 17 162 -6 406 -57 618 -135 556 -514
1032 -1031 1296 l-108 56 0 -201z"/>
<path d="M1358 4163 c-235 -177 -463 -450 -589 -703 -63 -128 -139 -346 -164
-470 -17 -83 -27 -148 -34 -215 -9 -84 -7 -391 3 -460 37 -245 91 -426 187
-621 69 -140 155 -275 248 -389 60 -74 143 -166 166 -186 6 -5 28 -25 50 -45
22 -19 74 -61 115 -92 41 -31 77 -59 80 -62 3 -3 15 -11 28 -18 l22 -12 0
1675 c0 921 -2 1675 -5 1675 -2 0 -50 -35 -107 -77z"/>
</g>
</svg>
