<svg xmlns="http://www.w3.org/2000/svg" height="383.0205" width="329.4304"><rect id="backgroundrect" width="100%" height="100%" x="0" y="0" fill="none" stroke="none"/><g class="currentLayer" style=""><title>Layer 1</title><path d="M177.4908247909546,286.24789821243286 c-22.764,-6.367 -43.228,-27.93 -62.266,-65.61 c-22.266,-44.067 -28.638,-82.696 -17.45,-105.763 c4.601,-9.484 15.555,-15.273 25.96,-13.718 c21.236,3.171 28.506,19.453 27.786,62.22 c-0.16800000000000012,10.012 -0.025000000000000015,17.887 0.31800000000000017,17.5 c0.3430000000000003,-0.3860000000000002 1.173,-2.502 1.844,-4.702 c0.6700000000000006,-2.2 4.25,-9.936 7.955,-17.191 c8.308,-16.273 8.882,-19.024 5.502,-26.347 c-2.595,-5.625 -3.334,-13.15 -1.5670000000000002,-15.962 c0.6640000000000005,-1.057 2.6740000000000004,-1.5 6.807,-1.5 h5.864 l6.622,-7.212 c6.782,-7.3870000000000005 17.258,-15.11 23.26,-17.145 c5.24,-1.7770000000000001 14.88,-1.373 19.435,0.8140000000000003 l3.966,1.904 l-3.47,-0.6800000000000006 c-13.92,-2.73 -25.62,1.319 -36.708,12.703 c-14.323,14.706 -23.53,38.091 -18.672,47.432 c1.1280000000000001,2.17 1.122,2.172 -0.998,0.273 c-1.173,-1.05 -2.3120000000000003,-1.726 -2.531,-1.5 c-2.205,2.274 -12.082,28.326 -15.017,39.604 c-3.77,14.492 -4.438,33.777 -1.5670000000000002,45.229 c2.676,10.673 7.813,21.172 13.651,27.903 c2.5140000000000002,2.899 4.75,5.09 4.968,4.87 c0.21900000000000008,-0.22100000000000009 -0.7480000000000003,-4.63 -2.1470000000000002,-9.798 c-3.114,-11.497 -4.145,-25.228 -2.496,-33.21 l1.201,-5.814 l2.984,4.814 c6.079,9.808 20.735,22.58 27.47,23.94 c5.989,1.207 6.13,-6.54 0.3960000000000003,-21.627 c-3.797,-9.992 -5.139,-15.742 -5.834,-25 c-0.8180000000000003,-10.891 0.913,-18.125 7.54,-31.503 c5.605,-11.315 5.956,-14.098 2.985,-23.658 c-1.084,-3.487 -1.976,-6.472 -1.983,-6.635 c-0.007000000000000006,-0.1630000000000001 2.087,1.32 4.652,3.297 c7.946,6.118 16.829,9.886 23.452,9.946 c5.39,0.04900000000000002 6.006,-0.18600000000000008 8.55,-3.258 c1.509,-1.8210000000000002 3.681,-6.321 4.828,-10 l2.084,-6.69 l-0.3370000000000003,7.222 l-0.3380000000000003,7.222 l2.755,-1.978 c1.5150000000000001,-1.089 3.9530000000000003,-4.338 5.417,-7.222 l2.662,-5.243 l-0.47400000000000014,6.678 c-0.37300000000000016,5.256 -1.484,8.858 -5.22,16.92 c-5.605,12.09 -5.885,15.596 -1.99,24.839 c3.8,9.019 6.437,23.323 7.11,38.563 c0.513,11.608 0.29900000000000015,14.267 -2.002,24.83 c-3.013,13.828 -3.39,23.745 -0.98,25.763 c4.593,3.8440000000000003 2.857,9.692 -3.6590000000000007,12.322 c-5.2940000000000005,2.136 -15.074,2.222 -20.62,0.18100000000000008 c-6.073,-2.234 -10.316,-1.995 -15.988,0.904 c-4.467,2.283 -5.948,2.492 -17.07,2.41 c-6.699,-0.04900000000000002 -14.187,-0.6500000000000004 -16.641000000000002,-1.3370000000000002 zm59.108,-117.01 c0.30000000000000016,-0.79 1.146,-1.205 1.8780000000000001,-0.922 c1.727,0.6690000000000006 3.933,-2.8 6.423,-10.101 c2.8200000000000003,-8.268 2.62,-9.248 -1.226,-5.978 c-4.136,3.518 -8.72,5.438 -12.984,5.438 h-3.38 l0.505,4.75 c0.278,2.612 0.908,5.537 1.4,6.5 c1.1,2.148 6.597,2.3810000000000002 7.384,0.31300000000000017 zm-3.487,-46.202 c-5.28,-2.654 -9.306000000000001,-7.446 -8.355,-9.946 c1.4300000000000002,-3.757 18.422,-8.411 23.542,-6.448 c3.123,1.198 3.2880000000000003,3.8280000000000003 0.6100000000000003,9.777 c-2.299,5.108 -6.204,9.256 -8.713000000000001,9.256 c-1.008,0 -4.196,-1.188 -7.084,-2.6390000000000002 zm-32.663,-10.24 c-1.4380000000000002,-4.84 -1.448,-4.6720000000000015 0.41300000000000014,-6.55 c2.234,-2.252 5.065,-1.9500000000000002 10.211,1.093 l4.508,2.664 l-3.783,1.32 c-2.081,0.7270000000000003 -5.228,2.222 -6.994,3.323 l-3.211,2.001 z" fill="#6d6d6d" id="svg_111" class="" fill-opacity="1"/></g></svg>