<svg xmlns="http://www.w3.org/2000/svg" xmlns:xlink="http://www.w3.org/1999/xlink" width="650" height="265" version="1.1" style=""><rect id="backgroundrect" width="100%" height="100%" x="0" y="0" fill="none" stroke="none"/>
    <!-- Generator: Sketch 59 (86127) - https://sketch.com -->
    <title>Group 32</title>
    <desc>Created with Sketch.</desc>
    
<g class="currentLayer" style=""><title>Layer 1</title><g id="Website" stroke="#3eccb4" stroke-width="1" fill="#ffffff" fill-rule="evenodd" class="selected" stroke-opacity="1" fill-opacity="1">
        <g id="Group-32" stroke="#3eccb4" stroke-opacity="1" fill="#ffffff" fill-opacity="1">
            <path d="M126.007899,42.50575611645737 C126.007899,38.479088316457364 129.263975,35.22236931645737 133.298472,35.22236931645737 L386.871877,35.22236931645737 C390.898902,35.22236931645737 394.162451,38.481240716457364 394.162451,42.50575611645737 L394.162451,216.04821771645737 C394.162451,220.07488571645737 390.906375,223.33160471645738 386.871877,223.33160471645738 L133.298472,223.33160471645738 C129.271447,223.33160471645738 126.007899,220.07273371645738 126.007899,216.04821771645737 L126.007899,42.50575611645737 z" id="Case" stroke="#3eccb4" stroke-width="2.08142999" fill="#ffffff" stroke-opacity="1" fill-opacity="1"/>
            <path d="M142.409667,54.47727481645737 C142.409667,52.75312011645737 143.813338,51.353451716457364 145.535934,51.353451716457364 L374.37407,51.353451716457364 C376.102828,51.353451716457364 377.500337,52.74513371645737 377.500337,54.47727481645737 L377.500337,183.78275671645736 C377.500337,185.50691171645738 376.096666,186.90657971645737 374.37407,186.90657971645737 L145.535934,186.90657971645737 C143.807176,186.90657971645737 142.409667,185.51489771645737 142.409667,183.78275671645736 L142.409667,54.47727481645737 z" id="Case" stroke="#3eccb4" stroke-width="2.08142999" fill="#ffffff" stroke-opacity="1" fill-opacity="1"/>
            <path d="M240.989547,223.33160471645738 L279.441148,223.33160471645738 L282.037136,256.89466371645733 L238.39356,256.89466371645733 L240.989547,223.33160471645738 z" id="Case" stroke="#3eccb4" stroke-width="2.08142999" fill="#ffffff" stroke-opacity="1" fill-opacity="1"/>
            <path d="M222.334407,257.15223671645737 L222.334407,260.66725471645736 C222.334407,262.74756571645736 224.024461,264.43984671645734 226.104395,264.43984671645734 L294.3263,264.43984671645734 C296.402444,264.43984671645734 298.096288,262.74736971645734 298.096288,260.66725471645736 L298.096288,257.15223671645737 C298.096288,257.00650971645734 297.983625,256.89466371645733 297.834738,256.89466371645733 L222.595957,256.89466371645733 C222.450148,256.89466371645733 222.334407,257.01012471645737 222.334407,257.15223671645737 z" id="Keyboard" stroke="#3eccb4" stroke-width="2.08142999" fill="#ffffff" stroke-opacity="1" fill-opacity="1"/>
            <ellipse id="Oval-6" stroke="#3eccb4" stroke-width="2.08142999" cx="260.2153625488281" cy="206.55007934570312" rx="4.816391944885254" ry="4.81330680847168" stroke-opacity="1" fill="#ffffff" fill-opacity="1"/>
            <rect id="Case" stroke="#3eccb4" stroke-width="2.08142999" fill="#ffffff" x="101.27507019042969" y="163.49049377441406" width="51.54707717895508" height="100.94935607910156" rx="6.244289875030518" stroke-opacity="1" fill-opacity="1"/>
            <path d="M101.275074,174.67817871645735 L152.822153,174.67817871645735 L152.822153,249.42753271645736 L101.275074,249.42753271645736 L101.275074,174.67817871645735 z" id="Case" stroke="#3eccb4" stroke-width="2.08142999" fill="#ffffff" stroke-opacity="1" fill-opacity="1"/>
            <rect id="Rectangle-11" fill="#ffffff" x="114.81237030029297" y="167.9135284423828" width="24.732824325561523" height="2.081429958343506" rx="1.040714979171753" stroke="#3eccb4" stroke-opacity="1" fill-opacity="1"/>
            <rect id="Rectangle-11" fill="#ffffff" x="124.184814453125" y="253.77252197265625" width="5.935877799987793" height="5.932075500488281" rx="2.9660377502441406" stroke="#3eccb4" stroke-opacity="1" fill-opacity="1"/>
            <ellipse id="Oval-6" stroke="#3eccb4" stroke-width="2.08142999" fill="#ffffff" cx="115.853759765625" cy="211.8837432861328" rx="3.9051828384399414" ry="3.9026811122894287" stroke-opacity="1" fill-opacity="1"/>
            <rect id="Rectangle-11" fill="#ffffff" x="124.96585083007812" y="205.1190948486328" width="18.224185943603516" height="2.081429958343506" rx="1.040714979171753" stroke="#3eccb4" stroke-opacity="1" fill-opacity="1"/>
            <rect id="Rectangle-11" fill="#ffffff" x="124.96585083007812" y="210.843017578125" width="13.0172758102417" height="2.081429958343506" rx="1.040714979171753" stroke="#3eccb4" stroke-opacity="1" fill-opacity="1"/>
            <rect id="Rectangle-11" fill="#ffffff" x="124.96585083007812" y="216.56695556640625" width="7.810365676879883" height="2.081429958343506" rx="1.040714979171753" stroke="#3eccb4" stroke-opacity="1" fill-opacity="1"/>
            <ellipse id="Oval-7" stroke="#3eccb4" stroke-width="2.08142999" fill="#ffffff" cx="74.84933471679688" cy="172.46665954589844" rx="39.96370315551758" ry="39.93743896484375" stroke-opacity="1" fill-opacity="1"/>
            <rect id="Case" stroke="#3eccb4" stroke-width="2.08142999" fill="#ffffff" x="319.7049560546875" y="124.20349884033203" width="192.65435791015625" height="129.308837890625" rx="6.244289875030518" stroke-opacity="1" fill-opacity="1"/>
            <path d="M306.42601,253.76653071645737 L306.42601,258.9760937164574 C306.42601,261.9890877164574 308.874337,264.43984671645734 311.88835,264.43984671645734 L520.175933,264.43984671645734 C523.187441,264.43984671645734 525.638273,261.99063371645735 525.638273,258.9760937164574 L525.638273,253.76653071645737 C525.638273,253.62487371645736 525.525092,253.51233971645738 525.379413,253.51233971645738 L306.68487,253.51233971645738 C306.538643,253.51233971645738 306.42601,253.62484071645736 306.42601,253.76653071645737 z" id="Keyboard" stroke="#3eccb4" stroke-width="2.08142999" fill="#ffffff" stroke-opacity="1" fill-opacity="1"/>
            <path d="M430.428848,253.62947571645736 L401.270407,253.62897071645736 C402.433781,256.7022337164574 405.402425,258.83255371645737 408.808279,258.83255371645737 L422.891133,258.83255371645737 C426.2974,258.83255371645737 429.265465,256.7025057164574 430.428848,253.62947571645736 z" id="Notch" stroke="#3eccb4" stroke-width="2.08142999" fill="#ffffff" stroke-opacity="1" fill-opacity="1"/>
            <rect id="Screen" stroke="#3eccb4" stroke-width="2.08142999" fill="#ffffff" x="328.2950439453125" y="136.43190002441406" width="175.31971740722656" height="105.07308197021484" rx="2.081429958343506" stroke-opacity="1" fill-opacity="1"/>
            <ellipse id="Oval-3" fill="#ffffff" cx="254.35757446289062" cy="53.69506072998047" rx="1.3017276525497437" ry="1.300893783569336" stroke="#3eccb4" stroke-opacity="1" fill-opacity="1"/>
            <path d="M179.899422,15.708963116457367 L300.177718,15.708963116457367 L300.177718,130.96853471645738 C300.177718,134.98983071645736 296.908511,138.25315371645738 292.886465,138.25315371645738 L187.190674,138.25315371645738 C183.165634,138.25315371645738 179.899422,134.98864771645736 179.899422,130.96853471645738 L179.899422,15.708963116457367 z" id="Case" stroke="#3eccb4" stroke-width="2.08142999" fill="#ffffff" stroke-opacity="1" fill-opacity="1"/>
            <path d="M179.899422,9.978491076457367 C179.899422,5.960361156457367 183.168858,2.700025716457367 187.190674,2.700025716457367 L292.886465,2.700025716457367 C296.913475,2.700025716457367 300.177718,5.956872136457367 300.177718,9.978491076457367 L300.177718,17.790393116457366 L179.899422,17.790393116457366 L179.899422,9.978491076457367 z" id="Case" stroke="#3eccb4" stroke-width="2.08142999" fill="#ffffff" stroke-opacity="1" fill-opacity="1"/>
            <ellipse id="Oval-5" fill="#ffffff" cx="191.09361267089844" cy="10.245209693908691" rx="2.343109607696533" ry="2.341608762741089" stroke="#3eccb4" stroke-opacity="1" fill-opacity="1"/>
            <ellipse id="Oval-5" fill="#ffffff" cx="198.9039764404297" cy="10.245209693908691" rx="2.343109607696533" ry="2.341608762741089" stroke="#3eccb4" stroke-opacity="1" fill-opacity="1"/>
            <ellipse id="Oval-5" fill="#ffffff" cx="206.71434020996094" cy="10.245209693908691" rx="2.343109607696533" ry="2.341608762741089" stroke="#3eccb4" stroke-opacity="1" fill-opacity="1"/>
            <rect id="Rectangle-11" fill="#ffffff" x="194.4781036376953" y="91.68115234375" width="4.686219215393066" height="2.081429958343506" rx="1.040714979171753" stroke="#3eccb4" stroke-opacity="1" fill-opacity="1"/>
            <rect id="Rectangle-11" fill="#ffffff" x="194.4781036376953" y="39.645408630371094" width="4.686219215393066" height="2.081429958343506" rx="1.040714979171753" stroke="#3eccb4" stroke-opacity="1" fill-opacity="1"/>
            <path d="M203.329184,39.64540801645737 L210.359847,39.64540801645737 C210.934619,39.64540801645737 211.400562,40.11135201645737 211.400562,40.686123016457366 C211.400562,41.260894016457364 210.934619,41.726838016457364 210.359847,41.726838016457364 L203.329184,41.726838016457364 C202.754413,41.726838016457364 202.288469,41.260894016457364 202.288469,40.686123016457366 C202.288469,40.11135201645737 202.754413,39.64540801645737 203.329184,39.64540801645737 z" id="Rectangle-11" fill="#ffffff" stroke="#3eccb4" stroke-opacity="1" fill-opacity="1"/>
            <path d="M215.044733,39.64540801645737 L222.075396,39.64540801645737 C222.650167,39.64540801645737 223.116111,40.11135201645737 223.116111,40.686123016457366 C223.116111,41.260894016457364 222.650167,41.726838016457364 222.075396,41.726838016457364 L215.044733,41.726838016457364 C214.469962,41.726838016457364 214.004018,41.260894016457364 214.004018,40.686123016457366 C214.004018,40.11135201645737 214.469962,39.64540801645737 215.044733,39.64540801645737 z" id="Rectangle-11" fill="#ffffff" stroke="#3eccb4" stroke-opacity="1" fill-opacity="1"/>
            <path d="M226.760281,39.64540801645737 L239.778891,39.64540801645737 C240.353662,39.64540801645737 240.819606,40.11135201645737 240.819606,40.686123016457366 C240.819606,41.260894016457364 240.353662,41.726838016457364 239.778891,41.726838016457364 L226.760281,41.726838016457364 C226.18551,41.726838016457364 225.719566,41.260894016457364 225.719566,40.686123016457366 C225.719566,40.11135201645737 226.18551,39.64540801645737 226.760281,39.64540801645737 z" id="Rectangle-11" fill="#ffffff" stroke="#3eccb4" stroke-opacity="1" fill-opacity="1"/>
            <path d="M244.463776,39.64540801645737 L263.730679,39.64540801645737 C264.30545,39.64540801645737 264.771394,40.11135201645737 264.771394,40.686123016457366 C264.771394,41.260894016457364 264.30545,41.726838016457364 263.730679,41.726838016457364 L244.463776,41.726838016457364 C243.889005,41.726838016457364 243.423061,41.260894016457364 243.423061,40.686123016457366 C243.423061,40.11135201645737 243.889005,39.64540801645737 244.463776,39.64540801645737 z" id="Rectangle-11" fill="#ffffff" stroke="#3eccb4" stroke-opacity="1" fill-opacity="1"/>
            <rect id="Rectangle-11" fill="#ffffff" x="194.4781036376953" y="50.05255889892578" width="4.686219215393066" height="2.081429958343506" rx="1.040714979171753" stroke="#3eccb4" stroke-opacity="1" fill-opacity="1"/>
            <rect id="Rectangle-11" fill="#ffffff" x="194.4781036376953" y="60.45970916748047" width="4.686219215393066" height="2.081429958343506" rx="1.040714979171753" stroke="#3eccb4" stroke-opacity="1" fill-opacity="1"/>
            <rect id="Rectangle-11" fill="#ffffff" x="194.4781036376953" y="70.86685180664062" width="4.686219215393066" height="2.081429958343506" rx="1.040714979171753" stroke="#3eccb4" stroke-opacity="1" fill-opacity="1"/>
            <rect id="Rectangle-11" fill="#ffffff" x="194.4781036376953" y="81.27400207519531" width="4.686219215393066" height="2.081429958343506" rx="1.040714979171753" stroke="#3eccb4" stroke-opacity="1" fill-opacity="1"/>
            <rect id="Rectangle-11" fill="#ffffff" x="194.4781036376953" y="102.08830261230469" width="4.686219215393066" height="2.081429958343506" rx="1.040714979171753" stroke="#3eccb4" stroke-opacity="1" fill-opacity="1"/>
            <rect id="Rectangle-11" fill="#ffffff" x="194.4781036376953" y="112.49545288085938" width="4.686219215393066" height="2.081429958343506" rx="1.040714979171753" stroke="#3eccb4" stroke-opacity="1" fill-opacity="1"/>
            <rect id="Rectangle-11" fill="#ffffff" x="202.28846740722656" y="50.05255889892578" width="18.224185943603516" height="2.081429958343506" rx="1.040714979171753" stroke="#3eccb4" stroke-opacity="1" fill-opacity="1"/>
            <rect id="Rectangle-11" fill="#ffffff" x="223.11610412597656" y="50.05255889892578" width="31.24146270751953" height="2.081429958343506" rx="1.040714979171753" stroke="#3eccb4" stroke-opacity="1" fill-opacity="1"/>
            <rect id="Rectangle-11" fill="#ffffff" x="256.9610290527344" y="50.05255889892578" width="13.0172758102417" height="2.081429958343506" rx="1.040714979171753" stroke="#3eccb4" stroke-opacity="1" fill-opacity="1"/>
            <rect id="Rectangle-11" fill="#ffffff" x="202.28846740722656" y="60.45970916748047" width="13.0172758102417" height="2.081429958343506" rx="1.040714979171753" stroke="#3eccb4" stroke-opacity="1" fill-opacity="1"/>
            <rect id="Rectangle-11" fill="#ffffff" x="217.90919494628906" y="60.45970916748047" width="13.0172758102417" height="2.081429958343506" rx="1.040714979171753" stroke="#3eccb4" stroke-opacity="1" fill-opacity="1"/>
            <rect id="Rectangle-11" fill="#ffffff" x="233.52993774414062" y="60.45970916748047" width="7.810365676879883" height="2.081429958343506" rx="1.040714979171753" stroke="#3eccb4" stroke-opacity="1" fill-opacity="1"/>
            <rect id="Rectangle-11" fill="#ffffff" x="202.28846740722656" y="70.86685180664062" width="26.0345516204834" height="2.081429958343506" rx="1.040714979171753" stroke="#3eccb4" stroke-opacity="1" fill-opacity="1"/>
            <rect id="Rectangle-11" fill="#ffffff" x="230.92648315429688" y="70.86685180664062" width="18.224185943603516" height="2.081429958343506" rx="1.040714979171753" stroke="#3eccb4" stroke-opacity="1" fill-opacity="1"/>
            <rect id="Rectangle-11" fill="#ffffff" x="202.28846740722656" y="81.27400207519531" width="26.0345516204834" height="2.081429958343506" rx="1.040714979171753" stroke="#3eccb4" stroke-opacity="1" fill-opacity="1"/>
            <rect id="Rectangle-11" fill="#ffffff" x="230.92648315429688" y="81.27400207519531" width="33.84491729736328" height="2.081429958343506" rx="1.040714979171753" stroke="#3eccb4" stroke-opacity="1" fill-opacity="1"/>
            <rect id="Rectangle-11" fill="#ffffff" x="202.28846740722656" y="91.68115234375" width="18.224185943603516" height="2.081429958343506" rx="1.040714979171753" stroke="#3eccb4" stroke-opacity="1" fill-opacity="1"/>
            <rect id="Rectangle-11" fill="#ffffff" x="223.11610412597656" y="91.68115234375" width="18.224185943603516" height="2.081429958343506" rx="1.040714979171753" stroke="#3eccb4" stroke-opacity="1" fill-opacity="1"/>
            <rect id="Rectangle-11" fill="#ffffff" x="243.94375610351562" y="91.68115234375" width="10.41382122039795" height="2.081429958343506" rx="1.040714979171753" stroke="#3eccb4" stroke-opacity="1" fill-opacity="1"/>
            <rect id="Rectangle-11" fill="#ffffff" x="202.28846740722656" y="102.08830261230469" width="33.84491729736328" height="2.081429958343506" rx="1.040714979171753" stroke="#3eccb4" stroke-opacity="1" fill-opacity="1"/>
            <rect id="Rectangle-11" fill="#ffffff" x="202.28846740722656" y="112.49545288085938" width="15.620731353759766" height="2.081429958343506" rx="1.040714979171753" stroke="#3eccb4" stroke-opacity="1" fill-opacity="1"/>
            <path d="M414.991426,97.40509031645736 L557.659437,97.40509031645736 L557.659437,198.88367771645736 C557.659437,202.90367271645738 554.399545,206.15980771645738 550.373649,206.15980771645738 L422.277215,206.15980771645738 C418.255898,206.15980771645738 414.991426,202.89795471645738 414.991426,198.88367771645736 L414.991426,97.40509031645736 z" id="Case" stroke="#3eccb4" stroke-width="2.08142999" fill="#ffffff" stroke-opacity="1" fill-opacity="1"/>
            <path d="M414.991426,91.67461821645736 C414.991426,87.65342051645737 418.251232,84.39615281645737 422.277215,84.39615281645737 L550.373649,84.39615281645737 C554.397843,84.39615281645737 557.659437,87.65320341645737 557.659437,91.67461821645736 L557.659437,99.48652021645736 L414.991426,99.48652021645736 L414.991426,91.67461821645736 z" id="Case" stroke="#3eccb4" stroke-width="2.08142999" fill="#ffffff" stroke-opacity="1" fill-opacity="1"/>
            <ellipse id="Oval-5" fill="#ffffff" cx="426.18560791015625" cy="91.94132995605469" rx="2.343109607696533" ry="2.341608762741089" stroke="#3eccb4" stroke-opacity="1" fill-opacity="1"/>
            <ellipse id="Oval-5" fill="#ffffff" cx="433.9959716796875" cy="91.94132995605469" rx="2.343109607696533" ry="2.341608762741089" stroke="#3eccb4" stroke-opacity="1" fill-opacity="1"/>
            <ellipse id="Oval-5" fill="#ffffff" cx="441.80633544921875" cy="91.94132995605469" rx="2.343109607696533" ry="2.341608762741089" stroke="#3eccb4" stroke-opacity="1" fill-opacity="1"/>
            <ellipse id="Oval-6" stroke="#3eccb4" stroke-width="2.34160874" fill="#ffffff" cx="503.2478942871094" cy="151.78244018554688" rx="26.0345516204834" ry="26.01787567138672" stroke-opacity="1" fill-opacity="1"/>
            <path d="M500.383423,122.64242871645737 L500.383423,128.88671871645738 L506.63305,128.88671871645738 L506.63305,122.64242871645737 L500.383423,122.64242871645737 z" id="Rectangle-12" stroke="#3eccb4" stroke-width="2.08142999" fill="#ffffff" stroke-opacity="1" fill-opacity="1"/>
            <path d="M500.123077,174.67817871645735 L500.123077,180.92246871645736 L506.372704,180.92246871645736 L506.372704,174.67817871645735 L500.123077,174.67817871645735 z" id="Rectangle-12" stroke="#3eccb4" stroke-width="2.08142999" fill="#ffffff" stroke-opacity="1" fill-opacity="1"/>
            <path d="M474.088525,148.92048271645737 L474.088525,155.16477271645738 L480.338152,155.16477271645738 L480.338152,148.92048271645737 L474.088525,148.92048271645737 z" id="Rectangle-12" stroke="#3eccb4" stroke-width="2.08142999" fill="#ffffff" stroke-opacity="1" fill-opacity="1"/>
            <path d="M525.897284,148.92048271645737 L525.897284,155.16477271645738 L532.146911,155.16477271645738 L532.146911,148.92048271645737 L525.897284,148.92048271645737 z" id="Rectangle-12" stroke="#3eccb4" stroke-width="2.08142999" fill="#ffffff" stroke-opacity="1" fill-opacity="1"/>
            <line x1="529.282470703125" y1="128.36636352539062" x2="529.282470703125" y2="147.8797607421875" id="Line" stroke="#3eccb4" stroke-width="2.08142999" stroke-linecap="square"/>
            <line x1="529.282470703125" y1="155.68511962890625" x2="529.282470703125" y2="175.1985321044922" id="Line" stroke="#3eccb4" stroke-width="2.08142999" stroke-linecap="square"/>
            <ellipse id="Oval-5" fill="#ffffff" cx="529.282470703125" cy="127.58582305908203" rx="3.1241462230682373" ry="3.122144937515259" stroke="#3eccb4" stroke-opacity="1" fill-opacity="1"/>
            <ellipse id="Oval-5" fill="#ffffff" cx="529.282470703125" cy="177.01979064941406" rx="3.1241462230682373" ry="3.122144937515259" stroke="#3eccb4" stroke-opacity="1" fill-opacity="1"/>
            <g id="Group-60" fill="#ffffff" stroke="#3eccb4" stroke-width="2.08142999" stroke-opacity="1" fill-opacity="1">
                <rect id="Rectangle-15" x="440.5039367675781" y="120.30081939697266" width="16.14275550842285" height="16.13108253479004" rx="3.122144937515259" stroke="#3eccb4" stroke-opacity="1" fill="#ffffff" fill-opacity="1"/>
                <rect id="Rectangle-15" x="440.5039367675781" y="143.71690368652344" width="16.14275550842285" height="16.13108253479004" rx="3.122144937515259" stroke="#3eccb4" stroke-opacity="1" fill="#ffffff" fill-opacity="1"/>
                <rect id="Rectangle-15" x="440.5039367675781" y="167.13299560546875" width="16.14275550842285" height="16.13108253479004" rx="3.122144937515259" stroke="#3eccb4" stroke-opacity="1" fill="#ffffff" fill-opacity="1"/>
            </g>
            <ellipse id="Oval-8" stroke="#3eccb4" stroke-width="2.08142999" fill="#ffffff" cx="632.3792724609375" cy="239.72286987304688" rx="15.620731353759766" ry="15.610724449157715" stroke-opacity="1" fill-opacity="1"/>
            <ellipse id="Oval-8" stroke="#3eccb4" stroke-width="2.08142999" fill="#ffffff" cx="632.3792724609375" cy="239.72286987304688" rx="9.112092971801758" ry="9.106256484985352" stroke-opacity="1" fill-opacity="1"/>
            <ellipse id="Oval-8" stroke="#3eccb4" stroke-width="2.08142999" fill="#ffffff" cx="611.5516357421875" cy="216.04660034179688" rx="5.206910610198975" ry="5.203575134277344" stroke-opacity="1" fill-opacity="1"/>
            <path d="M588.639887,214.74570571645737 C588.065116,214.74570571645737 587.599172,215.21164971645737 587.599172,215.78642071645737 L587.599172,259.4964507164574 C587.599172,262.3703057164574 589.928892,264.7000257164574 592.802747,264.7000257164574 L628.720118,264.7000257164574 C631.593973,264.7000257164574 633.923693,262.3703057164574 633.923693,259.4964507164574 L633.923693,215.78642071645737 C633.923693,215.21164971645737 633.457749,214.74570571645737 632.882978,214.74570571645737 L588.639887,214.74570571645737 z" id="Rectangle-16" stroke="#3eccb4" stroke-width="2.08142999" fill="#ffffff" stroke-opacity="1" fill-opacity="1"/>
            <rect id="Rectangle-16" stroke="#3eccb4" stroke-width="2.08142999" fill="#ffffff" x="609.728515625" y="228.79534912109375" width="13.539300918579102" height="16.651439666748047" rx="3.122144937515259" stroke-opacity="1" fill-opacity="1"/>
            <line x1="616.3680419921875" y1="215.13597106933594" x2="616.3680419921875" y2="226.97410583496094" id="Line-2" stroke="#3eccb4" stroke-width="2.08142999" stroke-linecap="square"/>
            <path d="M557.92045,264.43984671645734 C566.547542,264.43984671645734 573.541181,264.43984671645734 573.541181,264.43984671645734 C573.541181,255.81828171645736 566.547542,248.82912171645737 557.92045,248.82912171645737 C549.293358,248.82912171645737 542.299719,255.81828171645736 542.299719,264.43984671645734 C542.299719,264.43984671645734 549.293358,264.43984671645734 557.92045,264.43984671645734 z" id="Oval-8" stroke="#3eccb4" stroke-width="2.08142999" fill="#ffffff" stroke-opacity="1" fill-opacity="1"/>
            <rect id="Rectangle-11" fill="#ffffff" x="556.8790893554688" y="248.3087615966797" width="2.082764148712158" height="3.382323741912842" rx="1.041382074356079" stroke="#3eccb4" stroke-opacity="1" fill-opacity="1"/>
            <path d="M16.391389,233.73862671645736 C7.91344584,233.73862671645736 1.040715,240.61135771645738 1.040715,249.08930071645736 C1.040715,257.56724371645737 7.91344584,264.43997471645736 16.391389,264.43997471645736 L79.4070531,264.43997471645736 C80.2692097,264.43997471645736 80.9681256,263.74105871645736 80.9681256,262.8789017164574 L80.9681256,260.4629097164574 C80.9681256,259.37058471645736 80.123732,258.46409171645735 79.0341503,258.3867097164574 C71.8803755,257.8786037164574 68.0805122,254.73598571645738 68.0805122,249.08930071645736 C68.0805122,243.44261371645737 71.8803788,240.29999471645738 79.0341596,239.79189071645737 C80.1237345,239.71450271645736 80.9681256,238.80801071645737 80.9681256,237.71569171645737 L80.9681256,235.29969871645736 C80.9681256,234.43754271645736 80.2692097,233.73862671645736 79.4070531,233.73862671645736 L16.391389,233.73862671645736 z" id="Rectangle-17" stroke="#3eccb4" stroke-width="2.08142999" fill="#ffffff" stroke-opacity="1" fill-opacity="1"/>
            <path d="M80.1864202,259.04050271645735 C80.1864202,259.2923157164574 79.9821545,259.4964507164574 79.73018,259.4964507164574 L79.73018,259.4964507164574 L72.353427,259.4964507164574 L16.1414223,259.4964507164574 C10.3900278,259.4964507164574 5.72760145,254.83701071645737 5.72760145,249.08930071645736 C5.72760145,243.34159071645738 10.3900278,238.68215071645736 16.1414223,238.68215071645736 L72.353427,238.68215071645736 L79.73018,238.68215071645736 L79.73018,238.68215071645736 C79.9821545,238.68215071645736 80.1864202,238.88628571645737 80.1864202,239.13809871645736 " id="Rectangle-19" stroke="#3eccb4" stroke-width="2.08142999" stroke-opacity="1" fill="#ffffff" fill-opacity="1"/>
            <rect id="Rectangle-18" fill="#ffffff" x="14.0586576461792" y="244.666259765625" width="54.67255783081055" height="2.081429958343506" rx="1.040714979171753" stroke="#3eccb4" stroke-opacity="1" fill-opacity="1"/>
            <rect id="Rectangle-18" fill="#ffffff" x="14.0586576461792" y="251.1707305908203" width="54.67255783081055" height="2.081429958343506" rx="1.040714979171753" stroke="#3eccb4" stroke-opacity="1" fill-opacity="1"/>
            <path d="M65.1265421,181.79583371645737 C63.848875,180.66067071645736 62.5712079,179.52550671645736 61.2935408,178.39034371645738 C59.2574411,176.58334871645738 57.2271756,174.77056271645736 55.1910759,172.96356771645736 C54.7243482,172.55236071645737 54.2576205,172.13536171645737 53.7967269,171.72415471645738 C53.7967269,172.26856971645736 53.7967269,172.81877571645737 53.7967269,173.36319171645738 C55.074394,172.22802771645738 56.3520611,171.09286471645737 57.6297282,169.95770071645737 C59.665827900000004,168.15070571645737 61.6960934,166.33791971645738 63.7321931,164.53092471645738 C64.1989208,164.11971771645736 64.6656485,163.70271871645735 65.1265421,163.29151171645736 C65.5816017,162.88609571645736 65.5757676,162.05788971645737 65.1265421,161.65247471645736 C64.6423121,161.20651771645737 63.965557,161.21810071645737 63.4754929,161.65247471645736 C62.1978257,162.78763771645737 60.9201586,163.92280171645737 59.6424915,165.05796471645738 C57.6063919,166.86495971645738 55.5761263,168.67774671645736 53.5400267,170.48474071645737 C53.0732989,170.89594871645735 52.6065712,171.31294671645736 52.1456776,171.72415471645738 C51.6964522,172.12377771645737 51.6964522,172.96356771645736 52.1456776,173.36319171645738 C53.4233447,174.49835471645736 54.7010118,175.63351871645736 55.978679,176.76868171645737 C58.0147786,178.57567671645737 60.0450442,180.38846271645735 62.0811438,182.19545771645735 C62.5478715,182.60666471645737 63.0145992,183.02366371645738 63.4754929,183.43487071645737 C63.9305524,183.84028671645737 64.6831508,183.91557771645736 65.1265421,183.43487071645737 C65.5349289,182.99470571645736 65.6107721,182.23020771645736 65.1265421,181.79583371645737 L65.1265421,181.79583371645737 z" id="Shape" fill="#ffffff" fill-rule="nonzero" stroke="#3eccb4" stroke-opacity="1" fill-opacity="1"/>
            <path d="M84.5825817,163.29426671645737 C85.8602488,164.42942971645738 87.1379159,165.56459371645738 88.415583,166.69975671645736 C90.4516827,168.50675171645736 92.4819482,170.31953871645737 94.5180479,172.12653371645737 C94.9847756,172.53774071645736 95.4515033,172.95473971645737 95.9123969,173.36594671645736 C95.9123969,172.82153171645737 95.9123969,172.27132471645737 95.9123969,171.72690971645736 C94.6347298,172.86207271645736 93.3570627,173.99723671645737 92.0793956,175.13239971645737 C90.0432959,176.93939471645737 88.0130304,178.75218171645736 85.9769307,180.55917571645736 C85.510203,180.97038371645738 85.0434753,181.38738171645736 84.5825817,181.79858971645737 C84.1275221,182.20400471645738 84.1333562,183.03221071645737 84.5825817,183.43762671645737 C85.0668117,183.88358371645737 85.7435668,183.87199971645737 86.2336309,183.43762671645737 C87.5112981,182.30246271645737 88.7889652,181.16729971645736 90.0666323,180.03213571645736 C92.1027319,178.22514071645736 94.1329975,176.41235471645737 96.1690971,174.60535971645737 C96.6358249,174.19415271645735 97.1025526,173.77715371645738 97.5634462,173.36594671645736 C98.0126716,172.96632271645737 98.0126716,172.12653371645737 97.5634462,171.72690971645736 C96.2857791,170.59174571645735 95.008112,169.45658271645738 93.7304448,168.32141871645737 C91.6943452,166.51442471645737 89.6640796,164.70163771645736 87.62798,162.89464271645735 C87.1612523,162.48343571645736 86.6945246,162.06643671645736 86.2336309,161.65522971645737 C85.7785714,161.24981471645737 85.025973,161.17452271645737 84.5825817,161.65522971645737 C84.1741949,162.09539471645738 84.0983517,162.85989271645738 84.5825817,163.29426671645737 L84.5825817,163.29426671645737 z" id="Shape" fill="#ffffff" fill-rule="nonzero" stroke="#3eccb4" stroke-opacity="1" fill-opacity="1"/>
            <path d="M70.6937286,188.61645271645736 C71.0437744,187.57395571645736 71.3879861,186.53145871645737 71.7380319,185.48317071645738 C72.5723077,182.97538571645737 73.4065835,180.47339271645737 74.2408593,177.96560871645735 C75.2443239,174.94236671645737 76.2477884,171.92491771645737 77.2570871,168.90167571645736 C78.1263675,166.28964171645737 78.9956479,163.67760771645737 79.8649282,161.06557271645735 C80.2791491,159.79720171645738 80.7458768,158.53462171645737 81.1309271,157.24887571645738 C81.1367612,157.23150071645736 81.1425953,157.21412571645737 81.1484294,157.19675071645736 C81.3409546,156.62337771645736 80.9267338,155.90521271645736 80.3316559,155.77200471645736 C79.6899053,155.62721371645736 79.1006616,155.96312871645736 78.8964682,156.58283571645737 C78.5464224,157.62533271645736 78.2022107,158.66782971645736 77.852165,159.71611871645737 C77.0178892,162.22390271645736 76.1836134,164.72589571645736 75.3493376,167.23368071645737 C74.345873,170.25692171645736 73.3424084,173.27437171645738 72.3331097,176.29761271645737 C71.4638294,178.90964771645736 70.594549,181.52168171645738 69.7252686,184.13371571645737 C69.3110478,185.39629571645736 68.8443201,186.65887571645737 68.4592697,187.94462171645736 C68.4534356,187.96199671645738 68.4476015,187.97937171645736 68.4417674,187.99674671645738 C68.2492422,188.57011971645736 68.6634631,189.28828471645735 69.2585409,189.42149271645738 C69.9002915,189.56628371645738 70.4895353,189.23036771645738 70.6937286,188.61645271645736 L70.6937286,188.61645271645736 z" id="Shape" fill="#ffffff" fill-rule="nonzero" stroke="#3eccb4" stroke-opacity="1" fill-opacity="1"/>
        </g>
    </g></g></svg>